<?xml version="1.0" encoding="UTF-8"?>
<svg id="Layer_4" data-name="Layer 4" xmlns="http://www.w3.org/2000/svg" viewBox="0 0 955 367">
  <defs>
    <style>
      .cls-1 {
        fill: #ff4081;
      }

      .cls-2 {
        fill: #1a1a2e;
      }

      .cls-3 {
        fill: #6a1ebb;
      }
    </style>
  </defs>
  <path class="cls-2" d="M340,134.43h-16.89l-34.26,97.57h15.06l7.71-22.09h39.74l7.83,22.09h15.06l-34.26-97.57ZM316.85,195.17l14.7-41.9,14.7,41.9h-29.41Z"/>
  <path class="cls-2" d="M435.31,170.1c-4.66-5.18-11.2-7.81-19.44-7.81-6.24,0-11.25,1.33-14.87,3.95-2.93,2.12-5.18,4.44-6.72,6.92v-38.86h-14.61v97.7h14.74v-38.13c0-.84.08-1.84.25-3.01.16-1.15.61-2.7,1.32-4.58.7-1.87,1.63-3.55,2.75-5.01,1.11-1.43,2.78-2.73,4.97-3.84,2.19-1.11,4.77-1.68,7.67-1.68s5.32.52,7.42,1.56c2.1,1.03,3.68,2.23,4.7,3.58,1.03,1.36,1.89,3.02,2.56,4.93.67,1.92,1.07,3.53,1.19,4.77.13,1.27.19,2.49.19,3.67v37.74h14.87v-39.93c0-9.41-2.36-16.81-7-21.97Z"/>
  <path class="cls-2" d="M514.73,219.92c-5.11,0-7.59-2.9-7.59-8.87v-23.37c0-2.95-.46-5.85-1.38-8.63-.91-2.77-2.36-5.5-4.31-8.11-1.97-2.63-4.87-4.76-8.62-6.33-3.73-1.56-8.2-2.35-13.29-2.35-7.44,0-13.52,1.65-18.08,4.91-4.56,3.26-7.8,7.64-9.62,13.02l-.17.51,14.62,3.86.12-.49c.49-1.95,1.73-3.85,3.7-5.66,1.95-1.79,5.12-2.69,9.42-2.69,8.49,0,12.7,4.38,12.85,13.38h-2.6c-1.98.09-4.55.26-7.72.52-3.17.26-5.95.6-8.26,1.03-17.23,3.03-25.97,10.46-25.97,22.07,0,6.38,2.38,11.51,7.06,15.22,4.65,3.69,11.12,5.57,19.25,5.57,3.55,0,7.7-.74,12.35-2.21,4.4-1.38,7.83-3.76,10.18-7.06.78,1.45,1.84,2.73,3.15,3.82,2.76,2.29,6.22,3.66,10.01,3.96,1.53.12,2.56.17,3.52.17.46,0,1.87-.05,1.87-.05v-12.22h-.5ZM463.22,212.72c0-3.82,2.62-6.52,7.98-8.25,1.76-.5,4.85-1.06,9.15-1.65l11.91-1.1c-.01,1.75-.1,3.09-.25,4-.34,2.45-.59,3.96-.76,4.56-.57,2.13-1.73,4.04-3.45,5.67-2.82,2.66-6.37,4.34-10.51,5.01-.92.13-1.81.19-2.69.19-2.53,0-4.92-.55-7.1-1.62-2.88-1.42-4.28-3.65-4.28-6.81Z"/>
  <path class="cls-2" d="M585.6,185.75c-5.76-3.96-15.63-7.57-29.32-10.73-8.05-1.86-13.88-3.77-17.34-5.67-3.37-1.84-5.01-4.62-5.01-8.48s1.61-7.19,4.79-10.16c3.18-2.98,8.49-4.49,15.77-4.49,13.3,0,21.6,5.58,24.69,16.58l.1.37h14.44l-.08-.57c-1.3-9.25-5.4-16.66-12.19-22.03-6.78-5.36-15.77-8.07-26.7-8.07s-19.87,2.68-26.01,7.96c-6.17,5.29-9.34,12.25-9.42,20.67-.09,7.59,2.71,13.41,8.31,17.3,5.5,3.83,14.98,7.42,28.16,10.67,3.08.77,5.45,1.39,7.11,1.86,1.66.47,3.74,1.17,6.25,2.11,2.47.92,4.37,1.87,5.66,2.82,1.27.94,2.41,2.22,3.41,3.78.97,1.54,1.46,3.22,1.46,5,0,3.93-1.88,7.45-5.59,10.46-3.74,3.04-9.25,4.58-16.38,4.58-7.55,0-13.31-1.67-17.14-4.95-3.84-3.3-6.39-7.09-7.55-11.25l-.1-.37h-14.55l.07.56c1.04,8.92,5.12,16.22,12.13,21.72,6.99,5.48,16.17,8.26,27.28,8.26s19.64-2.63,26.37-7.81c6.78-5.21,10.21-12.6,10.21-21.97,0-8.01-2.97-14.11-8.82-18.14Z"/>
  <rect class="cls-2" x="603.73" y="134.3" width="14.74" height="97.7"/>
  <g>
    <path class="cls-2" d="M637.55,152.51c2.69,0,5-.93,6.84-2.78,1.84-1.85,2.78-4.15,2.78-6.84s-.93-4.88-2.78-6.77c-1.85-1.89-4.15-2.85-6.84-2.85s-4.89.96-6.78,2.84c-1.89,1.89-2.84,4.17-2.84,6.78s.96,5,2.85,6.84c1.88,1.84,4.16,2.77,6.77,2.77Z"/>
    <rect class="cls-2" x="630.24" y="163.96" width="14.62" height="68.04"/>
  </g>
  <path class="cls-2" d="M705.85,134.29v37c-5.18-5.97-11.87-9-19.92-9-9.44,0-17.19,3.41-23.04,10.12-5.84,6.7-8.8,15.34-8.8,25.69s2.96,18.95,8.8,25.57c5.85,6.63,13.65,9.99,23.17,9.99,8.03,0,14.68-2.91,19.79-8.64v6.97h14.74v-97.7h-14.74ZM706.24,204.57c-.83,4.75-2.87,8.58-6.07,11.4-3.19,2.82-7.33,4.24-12.32,4.24-5.98,0-10.69-2.03-14-6.04-3.33-4.04-5.02-9.49-5.02-16.18s1.69-12.22,5.02-16.18c3.31-3.93,8.02-5.92,14-5.92s10.46,1.91,13.82,5.67c3.37,3.78,5.07,8.88,5.07,15.14,0,3.79-.17,6.43-.5,7.87Z"/>
  <path class="cls-2" d="M787.87,172.5c-6.62-6.88-14.97-10.36-24.83-10.36s-18.17,3.42-24.7,10.17c-6.53,6.74-9.84,15.33-9.84,25.52s3.31,18.88,9.84,25.58c6.53,6.7,14.79,10.1,24.57,10.1,7.52,0,14.27-2.06,20.07-6.13,5.79-4.06,10-9.59,12.51-16.42l.25-.68-15.79.25c-3.65,6.23-9.34,9.38-16.9,9.38-5.07,0-9.42-1.51-12.9-4.5-3.35-2.87-5.54-6.72-6.52-11.44h53.9l.05-.44c.17-1.47.26-3.25.26-5.32,0-10.19-3.35-18.84-9.96-25.71ZM749.83,180.47c3.53-3.16,7.98-4.75,13.22-4.75s9.66,1.58,13.15,4.69c3.36,3,5.48,7.09,6.3,12.16h-39.03c.82-4.98,2.96-9.05,6.36-12.1Z"/>
  <path class="cls-2" d="M856.01,204.09c-1.09-2.32-2.39-4.18-3.84-5.55-1.45-1.36-3.5-2.6-6.12-3.69-2.57-1.07-4.75-1.86-6.48-2.33-1.72-.47-4.09-1.01-7.09-1.61-4.72-1.01-8.23-2.12-10.4-3.29-2.07-1.12-3.08-2.65-3.08-4.7s.9-3.85,2.67-5.55c1.78-1.7,4.64-2.56,8.52-2.56,7.07,0,11.16,2.98,12.48,9.11l.09.4h14.44l-.05-.55c-.61-6.18-3.28-11.39-7.94-15.48-4.65-4.09-11.27-6.16-19.66-6.16s-14.83,2.08-19.1,6.18c-4.28,4.1-6.45,9.11-6.45,14.87,0,3.15.56,5.84,1.66,8,1.11,2.18,3.06,4.05,5.79,5.54,2.66,1.46,5.3,2.62,7.85,3.44,2.53.82,6.2,1.79,10.88,2.9,3.03.76,5.39,1.44,7.01,2.04,1.56.57,3.01,1.49,4.33,2.72,1.28,1.2,1.9,2.63,1.9,4.39,0,2.76-1.08,4.8-3.3,6.26-2.26,1.48-5.22,2.23-8.78,2.23-4.22,0-7.41-.95-9.49-2.83-2.09-1.89-3.4-4-3.89-6.28l-.08-.4h-14.31l.05.54c.52,6.1,3.28,11.31,8.2,15.5,4.91,4.17,11.56,6.28,19.78,6.28,7.7,0,14.03-1.92,18.8-5.69,4.81-3.81,7.25-9.1,7.25-15.74,0-2.97-.56-5.65-1.65-7.98Z"/>
  <g>
    <path class="cls-1" d="M153.11,156.45c-.5-.2-1.01-.38-1.52-.56-7.83-2.61-16.42-3.25-24.59-2.17-6.47.86-13.73,2.82-18.48,7.57-1.24,1.24-2.28,2.7-2.88,4.35-2.84,7.8,4.6,11.62,6.55,12.32,4.33,1.58,10.26.65,14.22-1.25,6.81-3.28,14.56-8.45,22.35-8.38,3,.03,6.12,1.1,8,3.44,4.69,5.79.86,14.2-3.42,18.93-2.89,3.19-6.31,5.91-9.55,8.73-3.52,3.07-6.98,6.19-10.49,9.27-3.3,2.89-6.64,5.73-9.91,8.65-7.06,6.3-14.67,12.26-20.26,19.97-1.89,2.66-3.44,5.51-4.41,8.58-2.18,6.61-1.15,14.75,4.27,19.36,6.35,5.46,15.87,3.38,22.13-1.41,6.98-5.22,11.79-12.75,16.37-20.03,6.74-10.95,12.64-22.39,18.06-34.05,1.41-3.17,2.75-6.37,4.03-9.59,3.59-9.07,8.13-18.62,4.65-28.41-2.55-7.17-7.97-12.53-15.12-15.34Z"/>
    <path class="cls-3" d="M178.26,190.93c-.15.39-.3.77-.43,1.17-2.02,6.02-2.54,12.62-1.73,18.91.64,4.98,2.14,10.57,5.78,14.24.95.96,2.07,1.76,3.34,2.22,6,2.2,8.95-3.51,9.5-5.01,1.22-3.33.52-7.89-.93-10.94-2.51-5.25-6.47-11.22-6.39-17.21.03-2.31.86-4.7,2.66-6.15,4.46-3.59,10.92-.63,14.55,2.67,2.45,2.23,4.53,4.87,6.7,7.37,2.35,2.71,4.75,5.38,7.11,8.09,2.21,2.54,4.4,5.12,6.63,7.64,4.83,5.45,9.4,11.32,15.32,15.63,2.04,1.46,4.23,2.66,6.59,3.41,5.08,1.69,11.35.92,14.91-3.24,4.22-4.87,2.64-12.2-1.04-17.03-4-5.38-9.78-9.09-15.37-12.64-8.41-5.21-17.2-9.77-26.15-13.97-2.43-1.09-4.89-2.13-7.37-3.12-6.97-2.78-14.3-6.29-21.84-3.64-5.52,1.94-9.66,6.1-11.83,11.6Z"/>
    <path class="cls-3" d="M196.46,140.71c.15-.39.3-.77.43-1.17,2.02-6.02,2.54-12.62,1.73-18.91-.64-4.98-2.14-10.57-5.78-14.24-.95-.96-2.07-1.76-3.34-2.22-6-2.2-8.95,3.51-9.5,5.01-1.22,3.33-.52,7.89.93,10.94,2.51,5.25,6.47,11.22,6.39,17.21-.03,2.31-.86,4.7-2.66,6.15-4.46,3.59-10.92.63-14.55-2.67-2.45-2.23-4.53-4.87-6.7-7.37-2.35-2.71-4.75-5.38-7.11-8.09-2.21-2.54-4.4-5.12-6.63-7.64-4.83-5.45-9.4-11.32-15.32-15.63-2.04-1.46-4.23-2.66-6.59-3.41-5.08-1.69-11.35-.92-14.91,3.24-4.22,4.87-2.64,12.2,1.04,17.03,4,5.38,9.78,9.09,15.37,12.64,8.41,5.21,17.2,9.77,26.15,13.97,2.43,1.09,4.89,2.13,7.37,3.12,6.97,2.78,14.3,6.29,21.84,3.64,5.52-1.94,9.66-6.1,11.83-11.6Z"/>
    <path class="cls-1" d="M209.66,170.77c.3.12.6.23.9.33,4.63,1.56,9.71,1.95,14.55,1.33,3.83-.49,8.13-1.64,10.95-4.45.74-.73,1.35-1.59,1.71-2.57,1.69-4.61-2.7-6.88-3.85-7.3-2.56-.94-6.07-.4-8.42.72-4.04,1.93-8.63,4.98-13.24,4.92-1.77-.02-3.62-.66-4.73-2.05-2.76-3.43-.48-8.4,2.06-11.19,1.71-1.88,3.75-3.49,5.67-5.15,2.09-1.81,4.14-3.65,6.22-5.47,1.96-1.7,3.94-3.38,5.88-5.1,4.19-3.71,8.7-7.23,12.02-11.78,1.12-1.57,2.04-3.25,2.62-5.07,1.3-3.91.71-8.73-2.49-11.47-3.75-3.24-9.39-2.03-13.1.8-4.14,3.07-7,7.52-9.72,11.83-4.01,6.47-7.52,13.23-10.75,20.11-.84,1.87-1.64,3.76-2.4,5.67-2.14,5.36-4.84,11-2.8,16.8,1.49,4.25,4.7,7.43,8.92,9.1Z"/>
  </g>
</svg>